<svg width="14" height="22" viewBox="0 0 14 22" fill="none" xmlns="http://www.w3.org/2000/svg">
<path d="M3.75003 22C3.25003 22 2.81269 21.8373 2.43803 21.512C2.06269 21.1873 1.84169 20.775 1.77503 20.275L0.150026 8.125C0.116693 7.825 0.200026 7.56233 0.400026 7.337C0.600026 7.11233 0.850026 7 1.15003 7H12.85C13.15 7 13.4 7.11233 13.6 7.337C13.8 7.56233 13.8834 7.825 13.85 8.125L12.225 20.275C12.1584 20.775 11.9374 21.1873 11.562 21.512C11.1874 21.8373 10.75 22 10.25 22H3.75003ZM7.00003 15C7.83336 15 8.54169 14.7083 9.12503 14.125C9.70836 13.5417 10 12.8333 10 12V11C10 10.7167 9.90436 10.479 9.71303 10.287C9.52103 10.0957 9.28336 10 9.00003 10C8.71669 10 8.47936 10.0957 8.28803 10.287C8.09603 10.479 8.00003 10.7167 8.00003 11V12C8.00003 12.2833 7.90436 12.5207 7.71303 12.712C7.52103 12.904 7.28336 13 7.00003 13C6.71669 13 6.47936 12.904 6.28803 12.712C6.09603 12.5207 6.00003 12.2833 6.00003 12V11C6.00003 10.7167 5.90436 10.479 5.71303 10.287C5.52103 10.0957 5.28336 10 5.00003 10C4.71669 10 4.47936 10.0957 4.28803 10.287C4.09603 10.479 4.00003 10.7167 4.00003 11V12C4.00003 12.8333 4.29169 13.5417 4.87503 14.125C5.45836 14.7083 6.16669 15 7.00003 15ZM10 6C9.58336 6 9.22936 5.854 8.93803 5.562C8.64603 5.27067 8.50003 4.91667 8.50003 4.5C8.50003 4.08333 8.64603 3.72933 8.93803 3.438C9.22936 3.146 9.58336 3 10 3C10.4167 3 10.7707 3.146 11.062 3.438C11.354 3.72933 11.5 4.08333 11.5 4.5C11.5 4.91667 11.354 5.27067 11.062 5.562C10.7707 5.854 10.4167 6 10 6ZM5.00003 5C4.30003 5 3.70836 4.75833 3.22503 4.275C2.74169 3.79167 2.50003 3.2 2.50003 2.5C2.50003 1.8 2.74169 1.20833 3.22503 0.725C3.70836 0.241667 4.30003 0 5.00003 0C5.70003 0 6.29169 0.241667 6.77503 0.725C7.25836 1.20833 7.50003 1.8 7.50003 2.5C7.50003 3.2 7.25836 3.79167 6.77503 4.275C6.29169 4.75833 5.70003 5 5.00003 5Z" fill="#3498DB"/>
</svg>
